<?xml version="1.0" encoding="UTF-8"?>
<svg id="Calque_2" data-name="Calque 2" xmlns="http://www.w3.org/2000/svg" xmlns:xlink="http://www.w3.org/1999/xlink" viewBox="0 0 226.87 46.79">
  <defs>
    <style>
      .cls-1 {
        stroke: url(#Dégradé_sans_nom_886);
      }

      .cls-1, .cls-2, .cls-3, .cls-4 {
        stroke-miterlimit: 10;
      }

      .cls-1, .cls-4 {
        fill: #0d1016;
      }

      .cls-2 {
        fill: #2a2c4a;
      }

      .cls-2, .cls-3, .cls-4 {
        stroke: #fff;
      }

      .cls-2, .cls-4 {
        stroke-width: .25px;
      }

      .cls-3 {
        fill: none;
        stroke-width: .15px;
      }

      .cls-5 {
        fill: #fff;
      }
    </style>
    <linearGradient id="Dégradé_sans_nom_886" data-name="Dégradé sans nom 886" x1="51.13" y1="32.87" x2="175.74" y2="32.87" gradientUnits="userSpaceOnUse">
      <stop offset="0" stop-color="#0d1016"/>
      <stop offset=".04" stop-color="#191d2c"/>
      <stop offset=".15" stop-color="#343a5b"/>
      <stop offset=".26" stop-color="#4a5181"/>
      <stop offset=".35" stop-color="#59619c"/>
      <stop offset=".44" stop-color="#626bad"/>
      <stop offset=".5" stop-color="#666fb3"/>
      <stop offset=".56" stop-color="#626bad"/>
      <stop offset=".65" stop-color="#59619c"/>
      <stop offset=".74" stop-color="#4a5181"/>
      <stop offset=".85" stop-color="#343a5b"/>
      <stop offset=".96" stop-color="#191d2c"/>
      <stop offset="1" stop-color="#0d1016"/>
    </linearGradient>
  </defs>
  <g id="Calque_1-2" data-name="Calque 1">
    <path class="cls-4" d="M226.73,0c.03,5.57-.02,32.67,0,38.71,0,4.39-4.35,7.96-9.71,7.96H9.84c-5.36,0-9.71-3.56-9.71-7.96V7.96C.13,3.56.12,4.57.13,0"/>
    <g>
      <g>
        <path class="cls-5" d="M54.4,18.64h1.86v4.21h4.23v-4.21h1.86v10.47h-1.86v-4.64h-4.23v4.64h-1.86v-10.47Z"/>
        <path class="cls-5" d="M64.32,25.18c0-2.55,1.77-4.13,3.62-4.13,2.13,0,3.25,1.54,3.25,3.73,0,.35-.04.7-.08.9h-4.99c.15,1.4,1.05,2.19,2.32,2.19.67,0,1.25-.21,1.82-.57l.63,1.15c-.75.51-1.7.85-2.7.85-2.17,0-3.87-1.52-3.87-4.12ZM69.6,24.43c0-1.21-.54-1.95-1.61-1.95-.92,0-1.72.69-1.88,1.95h3.5Z"/>
        <path class="cls-5" d="M72.45,32.17l.34-1.43c.15.04.38.11.56.11.83,0,1.31-.56,1.57-1.35l.15-.49-3.09-7.77h1.87l1.36,3.85c.24.7.46,1.47.69,2.22h.06c.2-.73.4-1.5.6-2.22l1.17-3.85h1.78l-2.84,8.22c-.65,1.77-1.48,2.87-3.19,2.87-.43,0-.74-.06-1.02-.16Z"/>
        <path class="cls-5" d="M79.68,31.01c1.05-.4,1.63-1.13,1.62-1.98l-.09-1.38.71,1.14c-.21.2-.47.28-.76.28-.63,0-1.19-.4-1.19-1.13,0-.69.56-1.13,1.23-1.13.88,0,1.38.71,1.38,1.9,0,1.57-.91,2.78-2.49,3.33l-.4-1.02Z"/>
        <path class="cls-5" d="M87.87,18.64h1.86v10.47h-1.86v-10.47Z"/>
        <path class="cls-5" d="M92.12,22.03c.88-.5,1.33-1.09,1.33-2.02l-.12-1.22.72.94c-.22.19-.45.31-.74.31-.56,0-1.04-.37-1.04-.99,0-.68.44-1.1,1.04-1.1.81,0,1.26.65,1.26,1.77,0,1.4-.67,2.44-2,3.14l-.45-.83Z"/>
        <path class="cls-5" d="M96.49,21.24h1.51l.14,1.07h.05c.67-.69,1.43-1.26,2.41-1.26,1.15,0,1.81.53,2.17,1.41.75-.8,1.53-1.41,2.53-1.41,1.66,0,2.43,1.14,2.43,3.12v4.93h-1.84v-4.69c0-1.29-.38-1.78-1.21-1.78-.5,0-1.04.32-1.65.98v5.49h-1.84v-4.69c0-1.29-.38-1.78-1.21-1.78-.49,0-1.04.32-1.65.98v5.49h-1.84v-7.86Z"/>
        <path class="cls-5" d="M113.34,18.64h1.86v4.76h.05l3.73-4.76h2.06l-3.22,4.08,3.76,6.38h-2.05l-2.83-4.92-1.5,1.87v3.05h-1.86v-10.47Z"/>
        <path class="cls-5" d="M122.73,21.24h1.51l.14,1.06h.05c.7-.69,1.5-1.26,2.58-1.26,1.68,0,2.42,1.14,2.42,3.12v4.93h-1.84v-4.69c0-1.29-.37-1.78-1.22-1.78-.69,0-1.15.34-1.79.98v5.49h-1.84v-7.86Z"/>
        <path class="cls-5" d="M131.17,25.18c0-2.62,1.78-4.13,3.74-4.13s3.74,1.51,3.74,4.13-1.78,4.12-3.74,4.12-3.74-1.51-3.74-4.12ZM136.76,25.18c0-1.58-.69-2.62-1.84-2.62s-1.84,1.05-1.84,2.62.69,2.61,1.84,2.61,1.84-1.04,1.84-2.61Z"/>
        <path class="cls-5" d="M139.96,25.18c0-2.62,1.85-4.13,3.94-4.13,1,0,1.73.38,2.3.88l-.9,1.2c-.42-.36-.81-.58-1.31-.58-1.27,0-2.14,1.05-2.14,2.62s.86,2.61,2.09,2.61c.61,0,1.18-.3,1.63-.68l.75,1.22c-.74.65-1.67.97-2.57.97-2.14,0-3.79-1.51-3.79-4.12Z"/>
        <path class="cls-5" d="M147.87,17.8h1.8v7.06h.05l2.91-3.62h2.02l-2.7,3.2,2.97,4.66h-2l-2.02-3.41-1.23,1.42v2h-1.8v-11.31Z"/>
        <path class="cls-5" d="M155.33,25.18c0-2.55,1.77-4.13,3.62-4.13,2.12,0,3.25,1.54,3.25,3.73,0,.35-.04.7-.08.9h-4.99c.15,1.4,1.05,2.19,2.32,2.19.67,0,1.25-.21,1.83-.57l.63,1.15c-.75.51-1.7.85-2.7.85-2.17,0-3.87-1.52-3.87-4.12ZM160.61,24.43c0-1.21-.54-1.95-1.61-1.95-.92,0-1.72.69-1.88,1.95h3.5Z"/>
        <path class="cls-5" d="M163.96,21.24h1.51l.14,1.4h.05c.56-1.02,1.39-1.59,2.23-1.59.4,0,.65.05.89.16l-.32,1.6c-.28-.08-.48-.13-.81-.13-.63,0-1.38.43-1.86,1.63v4.8h-1.84v-7.86Z"/>
        <path class="cls-5" d="M170.09,28.06c0-.72.52-1.26,1.19-1.26s1.19.53,1.19,1.26-.52,1.24-1.19,1.24-1.19-.53-1.19-1.24ZM170.41,20.2l-.06-1.82h1.86l-.06,1.82-.26,5.46h-1.23l-.26-5.46Z"/>
      </g>
      <path class="cls-1" d="M51.13,32.87h124.62"/>
    </g>
    <path class="cls-3" d="M86.87,9.47l-.21.02c-.22.02-.39.19-.41.41l-.02.21c0,.07-.11.07-.11,0l-.02-.21c-.02-.22-.19-.39-.41-.41l-.21-.02c-.07,0-.07-.11,0-.11l.21-.02c.22-.02.39-.19.41-.41l.02-.21c0-.07.11-.07.11,0l.02.21c.02.22.19.39.41.41l.21.02c.07,0,.07.11,0,.11Z"/>
    <path class="cls-2" d="M71.81,9.94h0c-.78.14-1.39.75-1.53,1.53h0c-.03.15-.24.15-.27,0h0c-.14-.78-.75-1.39-1.53-1.53h0c-.15-.03-.15-.24,0-.27h0c.78-.14,1.39-.75,1.53-1.53h0c.03-.15.24-.15.27,0h0c.14.78.75,1.39,1.53,1.53h0c.15.03.15.24,0,.27Z"/>
    <path class="cls-3" d="M56.86,39.26l-.21.02c-.22.02-.39.19-.41.41l-.02.21c0,.07-.11.07-.11,0l-.02-.21c-.02-.22-.19-.39-.41-.41l-.21-.02c-.07,0-.07-.11,0-.11l.21-.02c.22-.02.39-.19.41-.41l.02-.21c0-.07.11-.07.11,0l.02.21c.02.22.19.39.41.41l.21.02c.07,0,.07.11,0,.11Z"/>
    <path class="cls-3" d="M90.66,39.26l-.21.02c-.22.02-.39.19-.41.41l-.02.21c0,.07-.11.07-.11,0l-.02-.21c-.02-.22-.19-.39-.41-.41l-.21-.02c-.07,0-.07-.11,0-.11l.21-.02c.22-.02.39-.19.41-.41l.02-.21c0-.07.11-.07.11,0l.02.21c.02.22.19.39.41.41l.21.02c.07,0,.07.11,0,.11Z"/>
    <path class="cls-3" d="M144.7,40.77l-.21.02c-.22.02-.39.19-.41.41l-.02.21c0,.07-.11.07-.11,0l-.02-.21c-.02-.22-.19-.39-.41-.41l-.21-.02c-.07,0-.07-.11,0-.11l.21-.02c.22-.02.39-.19.41-.41l.02-.21c0-.07.11-.07.11,0l.02.21c.02.22.19.39.41.41l.21.02c.07,0,.07.11,0,.11Z"/>
    <path class="cls-3" d="M58.37,13.04l-.21.02c-.22.02-.39.19-.41.41l-.02.21c0,.07-.11.07-.11,0l-.02-.21c-.02-.22-.19-.39-.41-.41l-.21-.02c-.07,0-.07-.11,0-.11l.21-.02c.22-.02.39-.19.41-.41l.02-.21c0-.07.11-.07.11,0l.02.21c.02.22.19.39.41.41l.21.02c.07,0,.07.11,0,.11Z"/>
    <path class="cls-3" d="M39.2,21.54l-.21.02c-.22.02-.39.19-.41.41l-.02.21c0,.07-.11.07-.11,0l-.02-.21c-.02-.22-.19-.39-.41-.41l-.21-.02c-.07,0-.07-.11,0-.11l.21-.02c.22-.02.39-.19.41-.41l.02-.21c0-.07.11-.07.11,0l.02.21c.02.22.19.39.41.41l.21.02c.07,0,.07.11,0,.11Z"/>
    <path class="cls-3" d="M143.2,13.04l-.21.02c-.22.02-.39.19-.41.41l-.02.21c0,.07-.11.07-.11,0l-.02-.21c-.02-.22-.19-.39-.41-.41l-.21-.02c-.07,0-.07-.11,0-.11l.21-.02c.22-.02.39-.19.41-.41l.02-.21c0-.07.11-.07.11,0l.02.21c.02.22.19.39.41.41l.21.02c.07,0,.07.11,0,.11Z"/>
    <path class="cls-3" d="M102.73,13.04l-.21.02c-.22.02-.39.19-.41.41l-.02.21c0,.07-.11.07-.11,0l-.02-.21c-.02-.22-.19-.39-.41-.41l-.21-.02c-.07,0-.07-.11,0-.11l.21-.02c.22-.02.39-.19.41-.41l.02-.21c0-.07.11-.07.11,0l.02.21c.02.22.19.39.41.41l.21.02c.07,0,.07.11,0,.11Z"/>
    <path class="cls-3" d="M129.36,38.81l-.21.02c-.22.02-.39.19-.41.41l-.02.21c0,.07-.11.07-.11,0l-.02-.21c-.02-.22-.19-.39-.41-.41l-.21-.02c-.07,0-.07-.11,0-.11l.21-.02c.22-.02.39-.19.41-.41l.02-.21c0-.07.11-.07.11,0l.02.21c.02.22.19.39.41.41l.21.02c.07,0,.07.11,0,.11Z"/>
    <path class="cls-3" d="M160.2,8.72l-.21.02c-.22.02-.39.19-.41.41l-.02.21c0,.07-.11.07-.11,0l-.02-.21c-.02-.22-.19-.39-.41-.41l-.21-.02c-.07,0-.07-.11,0-.11l.21-.02c.22-.02.39-.19.41-.41l.02-.21c0-.07.11-.07.11,0l.02.21c.02.22.19.39.41.41l.21.02c.07,0,.07.11,0,.11Z"/>
    <path class="cls-3" d="M106,42.77l-.21.02c-.22.02-.39.19-.41.41l-.02.21c0,.07-.11.07-.11,0l-.02-.21c-.02-.22-.19-.39-.41-.41l-.21-.02c-.07,0-.07-.11,0-.11l.21-.02c.22-.02.39-.19.41-.41l.02-.21c0-.07.11-.07.11,0l.02.21c.02.22.19.39.41.41l.21.02c.07,0,.07.11,0,.11Z"/>
    <path class="cls-2" d="M169.6,40.03h0c-.76.14-1.36.73-1.5,1.5h0c-.03.15-.24.15-.26,0h0c-.14-.76-.73-1.36-1.5-1.5h0c-.15-.03-.15-.24,0-.26h0c.76-.14,1.36-.73,1.5-1.5h0c.03-.15.24-.15.26,0h0c.14.76.73,1.36,1.5,1.5h0c.15.03.15.24,0,.26Z"/>
    <path class="cls-3" d="M120.01,9.12l-.21.02c-.22.02-.39.19-.41.41l-.02.21c0,.07-.11.07-.11,0l-.02-.21c-.02-.22-.19-.39-.41-.41l-.21-.02c-.07,0-.07-.11,0-.11l.21-.02c.22-.02.39-.19.41-.41l.02-.21c0-.07.11-.07.11,0l.02.21c.02.22.19.39.41.41l.21.02c.07,0,.07.11,0,.11Z"/>
    <path class="cls-3" d="M184.63,21.21l-.21.02c-.22.02-.39.19-.41.41l-.02.21c0,.07-.11.07-.11,0l-.02-.21c-.02-.22-.19-.39-.41-.41l-.21-.02c-.07,0-.07-.11,0-.11l.21-.02c.22-.02.39-.19.41-.41l.02-.21c0-.07.11-.07.11,0l.02.21c.02.22.19.39.41.41l.21.02c.07,0,.07.11,0,.11Z"/>
    <path class="cls-3" d="M175.97,13.79l-.21.02c-.22.02-.39.19-.41.41l-.02.21c0,.07-.11.07-.11,0l-.02-.21c-.02-.22-.19-.39-.41-.41l-.21-.02c-.07,0-.07-.11,0-.11l.21-.02c.22-.02.39-.19.41-.41l.02-.21c0-.07.11-.07.11,0l.02.21c.02.22.19.39.41.41l.21.02c.07,0,.07.11,0,.11Z"/>
    <path class="cls-3" d="M175.22,36.43l-.21.02c-.22.02-.39.19-.41.41l-.02.21c0,.07-.11.07-.11,0l-.02-.21c-.02-.22-.19-.39-.41-.41l-.21-.02c-.07,0-.07-.11,0-.11l.21-.02c.22-.02.39-.19.41-.41l.02-.21c0-.07.11-.07.11,0l.02.21c.02.22.19.39.41.41l.21.02c.07,0,.07.11,0,.11Z"/>
    <path class="cls-3" d="M44.19,8.22l-.21.02c-.22.02-.39.19-.41.41l-.02.21c0,.07-.11.07-.11,0l-.02-.21c-.02-.22-.19-.39-.41-.41l-.21-.02c-.07,0-.07-.11,0-.11l.21-.02c.22-.02.39-.19.41-.41l.02-.21c0-.07.11-.07.11,0l.02.21c.02.22.19.39.41.41l.21.02c.07,0,.07.11,0,.11Z"/>
    <path class="cls-3" d="M25.79,16.84l-.21.02c-.22.02-.39.19-.41.41l-.02.21c0,.07-.11.07-.11,0l-.02-.21c-.02-.22-.19-.39-.41-.41l-.21-.02c-.07,0-.07-.11,0-.11l.21-.02c.22-.02.39-.19.41-.41l.02-.21c0-.07.11-.07.11,0l.02.21c.02.22.19.39.41.41l.21.02c.07,0,.07.11,0,.11Z"/>
    <path class="cls-3" d="M32.99,34.8l-.21.02c-.22.02-.39.19-.41.41l-.02.21c0,.07-.11.07-.11,0l-.02-.21c-.02-.22-.19-.39-.41-.41l-.21-.02c-.07,0-.07-.11,0-.11l.21-.02c.22-.02.39-.19.41-.41l.02-.21c0-.07.11-.07.11,0l.02.21c.02.22.19.39.41.41l.21.02c.07,0,.07.11,0,.11Z"/>
    <path class="cls-3" d="M187.45,32.95l-.21.02c-.22.02-.39.19-.41.41l-.02.21c0,.07-.11.07-.11,0l-.02-.21c-.02-.22-.19-.39-.41-.41l-.21-.02c-.07,0-.07-.11,0-.11l.21-.02c.22-.02.39-.19.41-.41l.02-.21c0-.07.11-.07.11,0l.02.21c.02.22.19.39.41.41l.21.02c.07,0,.07.11,0,.11Z"/>
    <path class="cls-3" d="M191.15,8.95l-.21.02c-.22.02-.39.19-.41.41l-.02.21c0,.07-.11.07-.11,0l-.02-.21c-.02-.22-.19-.39-.41-.41l-.21-.02c-.07,0-.07-.11,0-.11l.21-.02c.22-.02.39-.19.41-.41l.02-.21c0-.07.11-.07.11,0l.02.21c.02.22.19.39.41.41l.21.02c.07,0,.07.11,0,.11Z"/>
    <path class="cls-3" d="M202.5,26.48l-.21.02c-.22.02-.39.19-.41.41l-.02.21c0,.07-.11.07-.11,0l-.02-.21c-.02-.22-.19-.39-.41-.41l-.21-.02c-.07,0-.07-.11,0-.11l.21-.02c.22-.02.39-.19.41-.41l.02-.21c0-.07.11-.07.11,0l.02.21c.02.22.19.39.41.41l.21.02c.07,0,.07.11,0,.11Z"/>
    <path class="cls-3" d="M21.8,30.22l-.21.02c-.22.02-.39.19-.41.41l-.02.21c0,.07-.11.07-.11,0l-.02-.21c-.02-.22-.19-.39-.41-.41l-.21-.02c-.07,0-.07-.11,0-.11l.21-.02c.22-.02.39-.19.41-.41l.02-.21c0-.07.11-.07.11,0l.02.21c.02.22.19.39.41.41l.21.02c.07,0,.07.11,0,.11Z"/>
    <path class="cls-3" d="M211.09,16.09l-.21.02c-.22.02-.39.19-.41.41l-.02.21c0,.07-.11.07-.11,0l-.02-.21c-.02-.22-.19-.39-.41-.41l-.21-.02c-.07,0-.07-.11,0-.11l.21-.02c.22-.02.39-.19.41-.41l.02-.21c0-.07.11-.07.11,0l.02.21c.02.22.19.39.41.41l.21.02c.07,0,.07.11,0,.11Z"/>
    <path class="cls-3" d="M209.21,34.35l-.21.02c-.22.02-.39.19-.41.41l-.02.21c0,.07-.11.07-.11,0l-.02-.21c-.02-.22-.19-.39-.41-.41l-.21-.02c-.07,0-.07-.11,0-.11l.21-.02c.22-.02.39-.19.41-.41l.02-.21c0-.07.11-.07.11,0l.02.21c.02.22.19.39.41.41l.21.02c.07,0,.07.11,0,.11Z"/>
  </g>
</svg>